<svg width="24" height="24" viewBox="0 0 24 24" fill="none" xmlns="http://www.w3.org/2000/svg">
<path d="M22.5534 10.7848C22.2112 10.2812 21.6856 10.0041 21.0738 10.0041H19.7853V8.07751C19.7853 7.08826 18.9806 6.28351 17.9913 6.28351H10.0492L9.24615 4.4882C8.95834 3.83195 8.3319 3.42413 7.61115 3.42413H2.94465C1.9554 3.42413 1.15065 4.22888 1.15065 5.21813C1.15065 6.92382 1.1454 8.62951 1.13996 10.3354L1.88996 10.3376C1.89521 8.63101 1.90065 6.92457 1.90065 5.21813C1.901 4.94135 2.0111 4.67601 2.20681 4.4803C2.40253 4.28458 2.66787 4.17448 2.94465 4.17413H7.61115C8.03602 4.17413 8.39021 4.4042 8.56046 4.79195L9.56321 7.03351H17.9913C18.2681 7.03386 18.5335 7.14396 18.7292 7.33967C18.9249 7.53538 19.035 7.80073 19.0353 8.07751V10.0039H6.20265C5.44871 10.0039 4.78965 10.4601 4.5234 11.1654L1.8744 18.1515C1.87534 15.9846 1.88021 13.7946 1.88996 11.6297L1.13996 11.6263C1.12931 14.0115 1.124 16.3967 1.12402 18.7819C1.12402 19.0678 1.19527 19.3459 1.3254 19.5986L1.31902 19.6159L1.42609 19.7764C1.58949 20.0224 1.81124 20.2242 2.07156 20.3637C2.33188 20.5032 2.62268 20.5761 2.91802 20.5759H18.4271C19.1799 20.5759 19.839 20.1223 20.1065 19.4198L22.7536 12.435C22.9695 11.8618 22.8971 11.274 22.5534 10.7848ZM22.052 12.1701L19.4055 19.1533C19.2474 19.5683 18.8726 19.8259 18.4271 19.8259H2.91802C2.77702 19.8259 2.63748 19.7973 2.50787 19.7418C2.37826 19.6863 2.2613 19.605 2.16409 19.5028L5.22484 11.4308C5.38252 11.0132 5.75715 10.7539 6.20265 10.7539H21.0738C21.4348 10.7539 21.732 10.9103 21.9363 11.211C22.1394 11.5001 22.1793 11.832 22.052 12.1701Z" fill="black"/>
</svg>
