<svg width="24" height="24" viewBox="0 0 24 24" fill="none" xmlns="http://www.w3.org/2000/svg">
<g clip-path="url(#clip0_15_55)">
<path d="M17.7646 12.9662L14.9333 15.7976L13.7662 14.6304C13.4917 14.356 13.0464 14.356 12.7719 14.6306C12.4972 14.9051 12.4972 15.3504 12.7719 15.6251L14.4364 17.2891C14.5016 17.3545 14.579 17.4064 14.6644 17.4418C14.7497 17.4771 14.8411 17.4952 14.9335 17.4951C15.1135 17.4951 15.2933 17.4265 15.4306 17.2891L18.7591 13.9606C19.0338 13.6862 19.0338 13.2409 18.7591 12.9664C18.4844 12.6917 18.0393 12.6917 17.7646 12.9662Z" fill="black"/>
<path d="M20.9434 8.60906H16.4687V3.05658C16.4687 1.37128 15.0974 0 13.412 0H3.05634C1.37109 0 0 1.37128 0 3.05658V9.98072C0 11.4241 1.00594 12.6363 2.35327 12.9547V14.6878C2.35334 14.8743 2.42744 15.0531 2.55929 15.1849C2.69113 15.3168 2.86993 15.3909 3.05639 15.3909C3.2393 15.3909 3.41911 15.3195 3.55373 15.1849L5.70136 13.0375H7.5315V18.5898C7.5315 20.2753 8.90259 21.6464 10.5879 21.6464H18.2986L20.4461 23.794C20.5444 23.8923 20.6697 23.9593 20.8061 23.9865C20.9425 24.0136 21.0839 23.9997 21.2124 23.9465C21.3409 23.8933 21.4507 23.8032 21.528 23.6875C21.6052 23.5719 21.6465 23.436 21.6465 23.2969V21.5648C22.9942 21.2465 24 20.0334 24 18.5898V11.6656C24 9.98016 22.6287 8.60906 20.9434 8.60906ZM5.41003 11.6312C5.22347 11.6312 5.04455 11.7052 4.91292 11.837L3.75952 12.9902V12.3344C3.75952 11.946 3.44475 11.6312 3.05639 11.6312C2.14655 11.6312 1.40625 10.8907 1.40625 9.98072V3.05658C1.40625 2.14655 2.14655 1.40625 3.05639 1.40625H13.4119C14.322 1.40625 15.0624 2.14655 15.0624 3.05658V8.60906H10.5879C8.91412 8.60906 7.55086 9.96169 7.5322 11.6312H5.41003ZM22.5938 18.5898C22.5938 19.4998 21.8535 20.2401 20.9434 20.2401C20.5551 20.2401 20.2403 20.5551 20.2403 20.9432V21.5993L19.0871 20.4461C19.0218 20.3808 18.9443 20.329 18.8589 20.2936C18.7736 20.2583 18.6821 20.2401 18.5898 20.2401H10.5879C9.67805 20.2401 8.93775 19.4998 8.93775 18.5898V11.6656C8.93775 10.7556 9.67805 10.0153 10.5879 10.0153H20.9434C21.8535 10.0153 22.5938 10.7556 22.5938 11.6656V18.5898Z" fill="black"/>
</g>
<defs>
<clipPath id="clip0_15_55">
<rect width="24" height="24" fill="white"/>
</clipPath>
</defs>
</svg>
