<svg width="512" height="512" viewBox="0 0 512 512" fill="none" xmlns="http://www.w3.org/2000/svg">
<path d="M91.4213 186.29C103.088 130.045 138.984 98.7181 194.976 89.2545C236.368 82.2602 277.774 82.1716 319.096 89.4509C376.748 99.6061 411.406 132.76 422.447 189.856C430.977 233.981 431.111 278.577 422.313 322.661C410.51 378.517 373.688 412.996 317.902 422.425C276.511 429.418 235.104 429.507 193.783 422.228C136.131 412.072 101.318 377.263 90.2783 320.168C81.313 275.751 82.1756 230.873 91.4213 186.29V186.29Z" fill="#00C86E"/>
<path fill-rule="evenodd" clip-rule="evenodd" d="M249.868 164.243C201.889 167.612 164.013 207.602 164.013 256.438C164.013 307.483 205.393 348.864 256.438 348.864C307.483 348.864 348.864 307.483 348.864 256.438C348.864 212.819 318.648 176.257 278.004 166.542V156.274C324.224 166.177 358.877 207.26 358.877 256.438C358.877 313.013 313.013 358.877 256.438 358.877C199.863 358.877 154 313.013 154 256.438C154 199.863 199.863 154 256.438 154C257.986 154 259.528 154.035 261.06 154.102V164.126L260.908 164.118V286.839L303.732 250.675L311.538 258.481L260.823 302.536C256.606 306.752 251.534 307.024 249.868 305.358V164.243ZM242.065 280.745V294.798L200.983 259.504L207.93 250.924L242.065 280.745V280.745Z" fill="white"/>
</svg>
