<svg width="24" height="24" viewBox="0 0 24 24" fill="none" xmlns="http://www.w3.org/2000/svg">
<g clip-path="url(#clip0_10_13)">
<path fill-rule="evenodd" clip-rule="evenodd" d="M6.3438 9.11006C6.34895 9.28687 6.40401 9.45861 6.50261 9.60546C6.60122 9.7523 6.73935 9.86826 6.90105 9.93994L14.8858 13.4794C14.9953 13.5278 15.113 13.5549 15.2326 13.5592C15.7749 13.5784 16.1378 13.5848 16.3701 13.5863C18.6786 15.3688 20.0623 16.6887 20.0623 16.6887C20.1931 16.8135 20.3571 16.8978 20.5346 16.9316C20.7121 16.9654 20.8956 16.9471 21.063 16.879C21.2304 16.8109 21.3746 16.6959 21.4781 16.5478C21.5817 16.3997 21.6402 16.2248 21.6467 16.0442C21.674 15.2805 21.5212 14.2638 21.3804 13.5123C21.9608 13.3455 22.3665 13.0439 22.6571 12.7222C23.3756 11.9267 23.3835 10.9075 23.3835 10.9075L23.3836 10.8873C23.3684 8.949 23.3579 6.90497 23.3579 6.90497L23.3578 6.89606C23.3023 3.10172 19.532 3.09084 19.532 3.09084C14.103 2.94853 10.5918 3.03169 10.3127 3.03872C8.97827 3.027 8.05427 3.45797 7.43552 4.06331C6.7923 4.69256 6.46587 5.53519 6.40193 6.39834C6.30368 7.72406 6.3438 9.11006 6.3438 9.11006Z" fill="#F1F1F6"/>
<path fill-rule="evenodd" clip-rule="evenodd" d="M8.16755 17.7067L8.17889 17.7069C11.2401 17.7069 13.3595 17.6475 13.3595 17.6475C14.8992 17.6073 15.7711 17.0049 16.2867 16.3523C16.9988 15.4509 17.0198 14.372 17.0147 14.128C17.0337 12.2462 17.0521 10.9616 17.0521 10.9616C17.1011 7.73034 13.851 7.66716 13.6235 7.66669H13.6466C8.84339 7.59084 4.4302 7.68638 4.22986 7.69078C2.76089 7.70138 1.92895 8.19122 1.43649 8.71003C0.672048 9.51525 0.666235 10.4993 0.674016 10.7033L0.673923 10.7023C0.689579 11.7592 0.735891 14.8583 0.735891 14.8583C0.736079 14.8685 0.736454 14.8787 0.736923 14.8889C0.822704 16.6904 1.96195 17.3597 2.83824 17.6077C2.73642 18.8357 2.52474 19.8704 2.52474 19.8704C2.49101 20.0353 2.50232 20.2063 2.55747 20.3653C2.61261 20.5244 2.70956 20.6656 2.83814 20.7743C2.96672 20.8829 3.12217 20.955 3.28819 20.9828C3.45421 21.0106 3.62466 20.9933 3.78164 20.9325C5.49999 20.2673 6.88833 18.539 6.88833 18.539C7.46442 17.8175 8.15348 17.7088 8.16755 17.7067ZM1.27908 6.95719C1.30308 6.96356 2.24499 7.21228 4.20164 7.39172C4.79424 7.446 5.31933 7.00903 5.3737 6.41644C5.42799 5.82394 4.99102 5.29875 4.39852 5.24447C2.65589 5.08472 1.82733 4.87181 1.82733 4.87181C1.25255 4.72059 0.662485 5.06484 0.511079 5.64028C0.359579 6.21563 0.703735 6.80569 1.27908 6.95719Z" fill="#F1F1F6"/>
<path fill-rule="evenodd" clip-rule="evenodd" d="M2.24989 3.66675C2.24989 3.66675 3.41923 4.83591 4.41467 5.73656C4.85586 6.13575 5.53826 6.10162 5.93745 5.66044C6.33664 5.21916 6.30251 4.53684 5.86133 4.13766C4.9017 3.26934 3.77454 2.14209 3.77454 2.14209C3.35379 1.72134 2.67064 1.72134 2.24989 2.14209C1.82914 2.56284 1.82914 3.246 2.24989 3.66675Z" fill="#F1F1F6"/>
<path fill-rule="evenodd" clip-rule="evenodd" d="M4.68194 2.56575C4.68194 2.56575 5.29816 3.46809 5.74216 4.42781C5.99201 4.96781 6.63335 5.2034 7.17335 4.95356C7.71344 4.70372 7.94894 4.06237 7.6991 3.52237C7.18113 2.4029 6.46291 1.35018 6.46291 1.35018C6.12748 0.858654 5.45613 0.731997 4.96469 1.06743C4.47316 1.40287 4.34651 2.07422 4.68194 2.56575ZM13.9129 18.8306C13.9129 18.8306 14.0054 20.3347 13.8939 21.9687C13.8534 22.5623 14.3026 23.0772 14.8962 23.1177C15.4899 23.1581 16.0047 22.7091 16.0452 22.1154C16.1662 20.3395 16.0654 18.7047 16.0651 18.6978C16.0284 18.1039 15.5164 17.6514 14.9225 17.6881C14.3286 17.7248 13.8762 18.2367 13.9129 18.8306Z" fill="#F1F1F6"/>
<path fill-rule="evenodd" clip-rule="evenodd" d="M16.011 18.7095L16.0111 18.7096C16.0111 18.7096 16.5763 20.2755 17.3491 21.5287C17.6613 22.0351 18.3261 22.1927 18.8326 21.8804C19.3391 21.568 19.4967 20.9033 19.1844 20.3968C18.522 19.3226 18.0398 17.9793 18.0398 17.9793V17.9792C17.8382 17.4193 17.2201 17.1284 16.6602 17.33C16.1003 17.5315 15.8094 18.1496 16.011 18.7095Z" fill="#F1F1F6"/>
<path fill-rule="evenodd" clip-rule="evenodd" d="M17.4027 17.2568L17.403 17.257C17.403 17.257 18.4907 18.4748 19.8473 19.1079C20.3866 19.3596 21.0286 19.1261 21.2802 18.5869C21.5318 18.0477 21.2984 17.4056 20.7592 17.154C19.7887 16.7011 19.0146 15.8245 19.0146 15.8245L19.0144 15.8243C18.619 15.3796 17.937 15.3395 17.4923 15.7347C17.0475 16.1301 17.0075 16.8121 17.4027 17.2568Z" fill="#F1F1F6"/>
<path fill-rule="evenodd" clip-rule="evenodd" d="M7.28107 9.08278C7.28107 9.08278 7.24226 7.74609 7.33695 6.46762C7.43173 5.18906 8.25935 3.95212 10.3202 3.9764C10.3202 3.9764 13.8758 3.8804 19.5286 4.02834C19.5286 4.02834 22.3787 4.03903 22.4207 6.90975C22.4207 6.90975 22.4311 8.95509 22.4463 10.8946C22.4463 10.8946 22.4207 12.7634 20.2536 12.7084C20.2536 12.7084 20.7554 14.7379 20.7099 16.0107C20.7099 16.0107 19.1956 14.5645 16.6859 12.6468C16.6859 12.6468 16.3598 12.661 15.2659 12.6222L7.28107 9.08278Z" fill="#FFBE32"/>
<path fill-rule="evenodd" clip-rule="evenodd" d="M10.6995 6.093C10.6995 6.093 15.5029 6.093 18.8821 6.13847C18.8821 6.13847 19.322 6.13247 19.2912 6.51731C19.2912 6.51731 19.2718 6.96337 18.6026 6.95372C17.9334 6.94397 14.045 7.02544 10.7732 7.00603C10.7732 7.00603 10.1614 7.01887 10.1568 6.52219C10.1568 6.52219 10.1455 6.09131 10.6995 6.093ZM12.056 8.85113C12.056 8.85113 11.9106 8.11406 12.6768 8.12372C12.6768 8.12372 15.261 8.15766 18.1461 8.16984C18.1461 8.16984 18.8231 8.15184 18.7905 8.70881C18.7905 8.70881 18.806 9.15881 18.1729 9.20231C18.1729 9.20231 14.8092 9.26053 12.6873 9.16941C12.6873 9.16941 12.0457 9.186 12.056 8.85113Z" fill="#3C69C6"/>
<path fill-rule="evenodd" clip-rule="evenodd" d="M1.6112 10.6738C1.6112 10.6738 1.46439 8.64487 4.24398 8.62819C4.24398 8.62819 8.73442 8.52675 13.6319 8.604C13.6319 8.604 16.1512 8.54794 16.1148 10.9481C16.1148 10.9481 16.0962 12.241 16.0773 14.1352C16.0773 14.1352 16.2313 16.6346 13.3333 16.7104C13.3333 16.7104 11.2247 16.7694 8.17895 16.7694C8.17895 16.7694 7.13861 16.723 6.15433 17.9558C6.15433 17.9558 4.94645 19.4764 3.44336 20.0583C3.44336 20.0583 3.77327 18.4448 3.82295 16.8156C3.82295 16.8156 1.77039 16.8808 1.67336 14.8443C1.67336 14.8443 1.62658 11.7165 1.6112 10.6738Z" fill="#4BCBEC"/>
<path fill-rule="evenodd" clip-rule="evenodd" d="M4.51371 12.0953C4.51371 12.0953 5.2683 12.1127 5.24102 12.8198C5.24383 13.2727 4.78015 13.4986 4.38958 13.5228C4.38958 13.5228 3.74355 13.5838 3.69386 12.8142C3.69386 12.8142 3.64483 12.0953 4.51371 12.0953ZM7.57708 10.8088C7.57708 10.8088 9.23796 10.6871 9.16839 12.5765C9.16839 12.5765 9.1833 14.2125 7.47771 14.2224C7.47771 14.2224 5.91621 14.2473 5.86652 12.6087C5.86652 12.6087 5.78214 10.7989 7.57708 10.8088ZM10.8666 11.5734C10.8666 11.5734 11.6943 11.527 11.6546 12.4295C11.6546 12.4295 11.7007 13.2319 10.8764 13.2617C10.8764 13.2617 10.1416 13.3212 10.1019 12.487C10.1019 12.487 10.0324 11.6132 10.8666 11.5734ZM13.395 11.7109C13.395 11.7109 14.1211 11.6854 14.1164 12.4688C14.1164 12.4688 14.1418 13.1885 13.3315 13.1964C13.3315 13.1964 12.6165 13.2282 12.6006 12.4735C12.6006 12.4735 12.58 11.6949 13.395 11.7109Z" fill="#FF9227"/>
<path fill-rule="evenodd" clip-rule="evenodd" d="M1.51786 6.05062C1.51786 6.05062 2.40961 6.28593 4.28723 6.45806C4.324 6.46078 4.36037 6.44896 4.38851 6.42513C4.41664 6.4013 4.4343 6.36738 4.43766 6.33066C4.44103 6.29395 4.42985 6.25738 4.40651 6.22883C4.38318 6.20028 4.34957 6.18204 4.31292 6.17803C2.46652 6.00881 1.58948 5.77865 1.58948 5.77865C1.55352 5.76947 1.51539 5.77487 1.4834 5.79369C1.45141 5.8125 1.42815 5.8432 1.4187 5.87909C1.40925 5.91498 1.41437 5.95315 1.43294 5.98528C1.45152 6.01741 1.48204 6.0409 1.51786 6.05062ZM2.91277 3.00384C2.91277 3.00384 4.06373 4.15481 5.04361 5.0414C5.07148 5.06504 5.10745 5.07691 5.14391 5.0745C5.18037 5.07209 5.21447 5.05559 5.23898 5.02849C5.2635 5.0014 5.27651 4.96582 5.27527 4.9293C5.27403 4.89278 5.25863 4.85818 5.23233 4.83281C4.25714 3.95053 3.11161 2.80499 3.11161 2.80499C3.05677 2.75015 2.96761 2.75015 2.91277 2.80499C2.85792 2.85984 2.85792 2.94899 2.91277 3.00384ZM5.4563 2.03718C5.4563 2.03718 6.11686 3.00496 6.59302 4.03415C6.60077 4.05091 6.61175 4.06598 6.62533 4.0785C6.63891 4.09102 6.65483 4.10074 6.67216 4.10711C6.6895 4.11348 6.70792 4.11637 6.72638 4.11562C6.74483 4.11486 6.76296 4.11049 6.77972 4.10273C6.79648 4.09497 6.81155 4.08399 6.82407 4.07041C6.83659 4.05683 6.84631 4.04092 6.85268 4.02358C6.85904 4.00624 6.86193 3.98782 6.86118 3.96937C6.86043 3.95091 6.85605 3.93279 6.8483 3.91603C6.36239 2.86603 5.68861 1.87865 5.68861 1.87865C5.66755 1.84793 5.63517 1.82681 5.59856 1.81994C5.56195 1.81306 5.52411 1.82099 5.49334 1.84199C5.46258 1.86298 5.4414 1.89533 5.43445 1.93192C5.42751 1.96852 5.43536 2.00637 5.4563 2.03718ZM14.8485 18.7729C14.8485 18.7729 14.9449 20.3352 14.8292 22.0325C14.8281 22.0689 14.8411 22.1043 14.8656 22.1313C14.89 22.1583 14.924 22.1747 14.9603 22.1772C14.9967 22.1797 15.0325 22.168 15.0604 22.1446C15.0883 22.1211 15.106 22.0878 15.1098 22.0516C15.2268 20.3353 15.1293 18.7555 15.1293 18.7555C15.127 18.7183 15.11 18.6835 15.082 18.6588C15.0541 18.6341 15.0175 18.6215 14.9803 18.6238C14.943 18.6261 14.9083 18.6432 14.8836 18.6711C14.8589 18.699 14.8463 18.7356 14.8485 18.7729ZM16.8931 18.392C16.8931 18.392 17.4223 19.8611 18.147 21.0366C18.1666 21.0683 18.198 21.091 18.2343 21.0996C18.2706 21.1082 18.3088 21.102 18.3406 21.0824C18.3723 21.0629 18.395 21.0315 18.4036 20.9952C18.4122 20.9589 18.4061 20.9207 18.3865 20.8889C17.676 19.7368 17.1578 18.2967 17.1578 18.2967C17.1515 18.2793 17.1419 18.2634 17.1295 18.2497C17.1171 18.236 17.1021 18.225 17.0854 18.2171C17.0687 18.2092 17.0506 18.2047 17.0321 18.2039C17.0137 18.203 16.9952 18.2058 16.9778 18.212C16.9605 18.2183 16.9445 18.2279 16.9308 18.2403C16.9172 18.2527 16.9061 18.2677 16.8982 18.2844C16.8904 18.3012 16.8859 18.3193 16.885 18.3377C16.8841 18.3561 16.8869 18.3746 16.8931 18.392ZM18.1035 16.634C18.1035 16.634 19.0549 17.7036 20.2439 18.2584C20.2606 18.2662 20.2787 18.2706 20.2971 18.2714C20.3156 18.2722 20.334 18.2694 20.3514 18.2631C20.3687 18.2568 20.3846 18.2471 20.3983 18.2346C20.4119 18.2222 20.4229 18.2071 20.4307 18.1904C20.4385 18.1737 20.4429 18.1556 20.4438 18.1371C20.4446 18.1187 20.4417 18.1003 20.4354 18.0829C20.4291 18.0656 20.4194 18.0496 20.407 18.036C20.3945 18.0224 20.3795 18.0114 20.3627 18.0036C19.2242 17.4722 18.3137 16.4471 18.3137 16.4471C18.289 16.4192 18.2541 16.4023 18.2169 16.4001C18.1796 16.3979 18.1431 16.4106 18.1152 16.4354C18.0873 16.4602 18.0704 16.495 18.0682 16.5323C18.066 16.5695 18.0787 16.6061 18.1035 16.634Z" fill="#3C69C6"/>
</g>
<defs>
<clipPath id="clip0_10_13">
<rect width="24" height="24" fill="white"/>
</clipPath>
</defs>
</svg>
