<svg width="24" height="24" viewBox="0 0 24 24" fill="none" xmlns="http://www.w3.org/2000/svg">
<circle cx="12" cy="12" r="11" fill="#D9D9D9"/>
<path d="M16.2678 12.3988H15.3397C15.4343 12.6532 15.486 12.9278 15.486 13.214V16.6596C15.486 16.7789 15.4649 16.8934 15.4264 17H16.9606C17.5338 17 18 16.5419 18 15.9789V14.1005C18 13.1622 17.2229 12.3988 16.2678 12.3988ZM8.51403 13.214C8.51403 12.9278 8.56571 12.6533 8.6603 12.3988H7.73227C6.7771 12.3988 6 13.1622 6 14.1006V15.979C6 16.5419 6.46624 17 7.03936 17H8.57363C8.53414 16.8907 8.51398 16.7756 8.51403 16.6596V13.214ZM13.0608 11.5122H10.9392C9.98403 11.5122 9.20694 12.2757 9.20694 13.214V16.6596C9.20694 16.8476 9.36205 17 9.55339 17H14.4466C14.638 17 14.7931 16.8476 14.7931 16.6596V13.214C14.7931 12.2757 14.016 11.5122 13.0608 11.5122ZM12 7C10.8513 7 9.91674 7.91808 9.91674 9.04659C9.91674 9.81204 10.3468 10.4806 10.9819 10.8315C11.2832 10.998 11.6304 11.0932 12 11.0932C12.3696 11.0932 12.7169 10.998 13.0181 10.8315C13.6532 10.4806 14.0833 9.81202 14.0833 9.04659C14.0833 7.91811 13.1487 7 12 7ZM8.34183 8.90757C7.48273 8.90757 6.78382 9.59416 6.78382 10.4381C6.78382 11.2821 7.48273 11.9687 8.34183 11.9687C8.55295 11.9689 8.76187 11.9266 8.95578 11.8446C9.2817 11.7068 9.55044 11.4628 9.71673 11.1571C9.83719 10.936 9.9001 10.689 9.89984 10.4381C9.89984 9.59418 9.20094 8.90757 8.34183 8.90757ZM15.6582 8.90757C14.7991 8.90757 14.1002 9.59416 14.1002 10.4381C14.0999 10.689 14.1628 10.936 14.2833 11.1571C14.4496 11.4628 14.7183 11.7068 15.0442 11.8446C15.2382 11.9266 15.4471 11.9689 15.6582 11.9687C16.5173 11.9687 17.2162 11.2821 17.2162 10.4381C17.2162 9.59416 16.5173 8.90757 15.6582 8.90757Z" fill="black"/>
</svg>
