<svg width="200" height="200" viewBox="0 0 200 200" fill="none" xmlns="http://www.w3.org/2000/svg">
<g clip-path="url(#clip0_10_32)">
<path d="M13.7 -8H187.3C193.055 -8 198.575 -5.71376 202.644 -1.64422C206.714 2.42532 209 7.9448 209 13.7V187.3C209 193.055 206.714 198.575 202.644 202.644C198.575 206.714 193.055 209 187.3 209H13.7C7.9448 209 2.42532 206.714 -1.64422 202.644C-5.71376 198.575 -8 193.055 -8 187.3V13.7C-8 7.9448 -5.71376 2.42532 -1.64422 -1.64422C2.42532 -5.71376 7.9448 -8 13.7 -8Z" fill="#9BA4B4"/>
<path d="M89.65 62.5249C89.65 69.7189 86.7921 76.6183 81.7052 81.7052C76.6183 86.7921 69.719 89.6499 62.525 89.6499C55.331 89.6499 48.4316 86.7921 43.3447 81.7052C38.2578 76.6183 35.4 69.7189 35.4 62.5249C35.4 55.3309 38.2578 48.4316 43.3447 43.3447C48.4316 38.2577 55.331 35.3999 62.525 35.3999C69.719 35.3999 76.6183 38.2577 81.7052 43.3447C86.7921 48.4316 89.65 55.3309 89.65 62.5249ZM187.3 122.2L154.75 89.6499L100.5 143.9L78.8 122.2L13.7 187.3H187.3V122.2Z" fill="#495B7A"/>
</g>
<defs>
<clipPath id="clip0_10_32">
<rect width="200" height="200" fill="white"/>
</clipPath>
</defs>
</svg>
