<svg width="24" height="24" viewBox="0 0 24 24" fill="none" xmlns="http://www.w3.org/2000/svg">
<circle cx="12" cy="12" r="11" fill="#D9D9D9"/>
<path d="M13.5192 11.7684H10.4808C9.11289 11.7684 8 12.9135 8 14.321V19.4895C8 19.7714 8.22213 20 8.49616 20H15.5038C15.7779 20 16 19.7714 16 19.4895V14.321C16 12.9135 14.8871 11.7684 13.5192 11.7684ZM12 5C10.3549 5 9.01652 6.37713 9.01652 8.06989C9.01652 9.21807 9.63241 10.2209 10.542 10.7473C10.9734 10.997 11.4707 11.1397 12 11.1397C12.5293 11.1397 13.0266 10.997 13.458 10.7473C14.3676 10.2209 14.9835 9.21804 14.9835 8.06989C14.9835 6.37716 13.6451 5 12 5Z" fill="black"/>
</svg>
