<svg width="16" height="16" viewBox="0 0 16 16" fill="none" xmlns="http://www.w3.org/2000/svg">
<g clip-path="url(#clip0_9_6)">
<path fill-rule="evenodd" clip-rule="evenodd" d="M0.579753 10.9898C-0.104096 9.29261 -0.185469 7.41228 0.349202 5.66234C0.883873 3.91241 2.00227 2.39865 3.51791 1.37348C5.03355 0.348303 6.85481 -0.12632 8.67802 0.0287485C10.5012 0.183817 12.2162 0.959204 13.5369 2.22562C13.6806 2.36325 13.7637 2.55233 13.768 2.75126C13.7723 2.95019 13.6974 3.14267 13.5597 3.28636C13.4221 3.43004 13.233 3.51317 13.0341 3.51745C12.8352 3.52173 12.6427 3.44681 12.499 3.30917C11.7875 2.62685 10.9302 2.11529 9.99179 1.81321C9.05343 1.51112 8.05865 1.42643 7.08273 1.56553C6.1068 1.70464 5.1753 2.0639 4.35871 2.61612C3.54212 3.16835 2.86183 3.89908 2.36932 4.75302C1.87681 5.60696 1.58498 6.56173 1.51591 7.5451C1.44685 8.52846 1.60235 9.51465 1.97067 10.4291C2.33898 11.3434 2.91045 12.1621 3.64184 12.823C4.37322 13.484 5.24536 13.9699 6.19226 14.2441C6.38336 14.2994 6.54466 14.4284 6.64066 14.6026C6.73667 14.7769 6.75952 14.9821 6.70419 15.1732C6.64886 15.3643 6.51988 15.5256 6.34563 15.6216C6.17138 15.7176 5.96613 15.7405 5.77503 15.6852C4.60972 15.3477 3.53642 14.7496 2.63636 13.9361C1.73629 13.1227 1.03302 12.1152 0.579753 10.9898ZM8.8457 15.0208C8.77706 14.7646 8.81299 14.4916 8.9456 14.262C9.07821 14.0323 9.29663 13.8647 9.55281 13.796C9.80899 13.7274 10.0819 13.7633 10.3116 13.8959C10.5413 14.0285 10.7089 14.247 10.7776 14.5031C10.8462 14.7593 10.8103 15.0323 10.6777 15.262C10.545 15.4916 10.3266 15.6592 10.0704 15.7279C9.81427 15.7965 9.54131 15.7606 9.31163 15.628C9.08194 15.4954 8.91434 15.277 8.8457 15.0208ZM13.7953 9.55343C13.7603 9.68059 13.7508 9.81341 13.7674 9.94425C13.784 10.0751 13.8262 10.2013 13.8918 10.3158C13.9574 10.4302 14.0449 10.5305 14.1494 10.611C14.2539 10.6915 14.3733 10.7505 14.5007 10.7846C14.628 10.8187 14.7609 10.8273 14.8916 10.8099C15.0224 10.7925 15.1484 10.7494 15.2623 10.683C15.3763 10.6167 15.4761 10.5285 15.5558 10.4235C15.6356 10.3185 15.6938 10.1987 15.7271 10.0711C15.7938 9.81557 15.7566 9.54406 15.6239 9.31581C15.4911 9.08756 15.2734 8.92109 15.0183 8.85274C14.7632 8.78439 14.4915 8.81971 14.2624 8.95098C14.0332 9.08225 13.8653 9.29882 13.7953 9.55343ZM15.0202 7.15467C14.764 7.22331 14.4911 7.18738 14.2614 7.05477C14.0317 6.92216 13.8641 6.70374 13.7954 6.44757C13.7268 6.19139 13.7627 5.91843 13.8953 5.68875C14.028 5.45906 14.2464 5.29146 14.5026 5.22282C14.7587 5.15418 15.0317 5.19011 15.2614 5.32272C15.4911 5.45533 15.6587 5.67375 15.7273 5.92993C15.7959 6.18611 15.76 6.45906 15.6274 6.68875C15.4948 6.91843 15.2764 7.08603 15.0202 7.15467ZM12.2425 12.243C12.1486 12.3356 12.074 12.4459 12.0229 12.5675C11.9719 12.6891 11.9453 12.8196 11.9449 12.9514C11.9445 13.0833 11.9701 13.214 12.0204 13.3359C12.0707 13.4578 12.1446 13.5686 12.2378 13.6619C12.3311 13.7551 12.4418 13.829 12.5638 13.8793C12.6857 13.9295 12.8164 13.9552 12.9482 13.9547C13.0801 13.9543 13.2106 13.9278 13.3322 13.8767C13.4538 13.8256 13.5641 13.751 13.6567 13.6571C13.8422 13.4692 13.9458 13.2155 13.9449 12.9514C13.944 12.6874 13.8387 12.4344 13.652 12.2476C13.4653 12.0609 13.2123 11.9556 12.9482 11.9548C12.6841 11.9539 12.4304 12.0575 12.2425 12.243Z" fill="black"/>
<path d="M9.65 8.42C10.0433 8.49333 10.3667 8.69 10.62 9.01C10.8733 9.33 11 9.69667 11 10.11C11 10.4833 10.9067 10.8133 10.72 11.1C10.54 11.38 10.2767 11.6 9.93 11.76C9.58333 11.92 9.17333 12 8.7 12H5.69V5.02H8.57C9.04333 5.02 9.45 5.09667 9.79 5.25C10.1367 5.40333 10.3967 5.61667 10.57 5.89C10.75 6.16333 10.84 6.47333 10.84 6.82C10.84 7.22667 10.73 7.56667 10.51 7.84C10.2967 8.11333 10.01 8.30667 9.65 8.42ZM7.09 7.9H8.37C8.70333 7.9 8.96 7.82667 9.14 7.68C9.32 7.52667 9.41 7.31 9.41 7.03C9.41 6.75 9.32 6.53333 9.14 6.38C8.96 6.22667 8.70333 6.15 8.37 6.15H7.09V7.9ZM8.5 10.86C8.84 10.86 9.10333 10.78 9.29 10.62C9.48333 10.46 9.58 10.2333 9.58 9.94C9.58 9.64 9.48 9.40667 9.28 9.24C9.08 9.06667 8.81 8.98 8.47 8.98H7.09V10.86H8.5Z" fill="black"/>
</g>
<defs>
<clipPath id="clip0_9_6">
<rect width="16" height="16" fill="white"/>
</clipPath>
</defs>
</svg>
