<svg width="200" height="200" viewBox="0 0 200 200" fill="none" xmlns="http://www.w3.org/2000/svg">
<g clip-path="url(#clip0_10_37)">
<path d="M100 200C155.228 200 200 155.228 200 100C200 44.7715 155.228 0 100 0C44.7715 0 0 44.7715 0 100C0 155.228 44.7715 200 100 200Z" fill="#FF2147"/>
<path d="M100 120C96.3787 120 92.8978 118.598 90.2867 116.089C87.6755 113.58 86.1366 110.158 85.9923 106.539L84.1446 59.8828C84.0705 57.9969 84.3779 56.1154 85.0484 54.3512C85.7189 52.587 86.7388 50.9763 88.0469 49.6157C89.3549 48.2552 90.9242 47.1727 92.6607 46.4333C94.3972 45.6938 96.2651 45.3126 98.1524 45.3125H101.848C103.735 45.3126 105.603 45.6938 107.339 46.4333C109.076 47.1727 110.645 48.2552 111.953 49.6157C113.261 50.9763 114.281 52.587 114.952 54.3512C115.622 56.1154 115.93 57.9969 115.856 59.8828L114.008 106.539C113.864 110.158 112.325 113.58 109.714 116.089C107.102 118.598 103.621 120 100 120Z" fill="white"/>
<path d="M113.996 140.691C113.996 132.962 107.73 126.695 100 126.695C92.2702 126.695 86.0039 132.962 86.0039 140.691C86.0039 148.421 92.2702 154.688 100 154.688C107.73 154.688 113.996 148.421 113.996 140.691Z" fill="white"/>
</g>
<defs>
<clipPath id="clip0_10_37">
<rect width="200" height="200" fill="white"/>
</clipPath>
</defs>
</svg>
